Coordinates																		
version=1																		
nRows=60																		
nColumns=19																		
inDegrees=yes																		
																		
"Units are S.I. units (second, meters, Newtons, ...)"																		
"If the header above contains a line with 'inDegrees', this indicates whether rotational values are in degrees (yes) or radians (no)."																		
																		
endheader																		
time	pelvis_tilt_global	pelvis_list_global	pelvis_rotation_global	pelvis_tx_global	pelvis_ty_global	pelvis_tz_global	hip_flexion_r	hip_adduction_r	hip_rotation_r	knee_flexion_r	ankle_dorsiflexion_r	hip_flexion_l	hip_adduction_l	hip_rotation_l	knee_flexion_l	ankle_dorsiflexion_l	pelvis_tilt	pelvis_rotation
0.05	-14.56040418	0	0	0.96491649	0.6263021	-0.34998563	-4.19596326	0	0	-16.49208302	-13.07590824	46.91869497	0	0	-47.67740809	6.09966579	3.02972083	0
0.06	-14.40024532	0	0	0.96672853	0.63085255	-0.35121477	-5.643434	0	0	-16.23119693	-16.58041427	45.29139572	0	0	-41.01031853	5.16210431	2.94634496	0
0.07	-14.19482548	0	0	0.96853119	0.63449213	-0.35237028	-6.82821958	0	0	-16.56790999	-19.7074053	43.405212	0	0	-34.22726601	3.87133928	2.8305041	0
0.08	-14.00592974	0	0	0.970078	0.63681172	-0.35333704	-7.4460971	0	0	-18.00347783	-21.98140048	41.48562166	0	0	-27.75771733	2.63151336	2.7355398	0
0.09	-13.83138761	0	0	0.97126609	0.63789134	-0.35391611	-7.48611514	0	0	-20.60909035	-23.07447266	39.62719557	0	0	-21.84887273	1.65235596	2.6310372	0
0.1	-13.61901084	0	0	0.97216485	0.63800594	-0.35400414	-7.13804635	0	0	-24.12096802	-22.95300527	37.86469392	0	0	-16.7268473	0.95559964	2.44329019	0
0.11	-13.33326952	0	0	0.97291791	0.63731655	-0.3537383	-6.5816304	0	0	-28.21188058	-21.92957409	36.27850121	0	0	-12.69735659	0.52062786	2.14263266	0
0.12	-13.00963147	0	0	0.97358718	0.63576125	-0.35338591	-5.83545678	0	0	-32.7022489	-20.51843837	35.00841939	0	0	-10.01389007	0.4034754	1.78680766	0
0.13	-12.7413737	0	0	0.97410295	0.63312624	-0.353093	-4.78199483	0	0	-37.56030258	-19.17747843	34.17091948	0	0	-8.70479691	0.71939111	1.48951168	0
0.14	-12.59450304	0	0	0.97436684	0.62923196	-0.35283489	-3.33566428	0	0	-42.77311018	-18.11695547	33.75154809	0	0	-8.56240775	1.44340863	1.32238077	0
0.15	-12.56278376	0	0	0.9743721	0.62405963	-0.35254365	-1.53911675	0	0	-48.24117107	-17.31281833	33.61380921	0	0	-9.2898727	2.15589759	1.27851789	0
0.16	-12.57145171	0	0	0.9742612	0.61774137	-0.35220161	0.44769025	0	0	-53.78260693	-16.61491502	33.58062013	0	0	-10.66293732	2.173613	1.28801896	0
0.17	-12.55110958	0	0	0.97423019	0.61044286	-0.35180682	2.4683951	0	0	-59.21775257	-15.82702638	33.57173173	0	0	-12.62138637	1.20210305	1.2962307	0
0.18	-12.52803783	0	0	0.9742857	0.60228905	-0.35133641	4.51877426	0	0	-64.4722033	-14.76043831	33.72451815	0	0	-15.30840536	-0.02904497	1.3326465	0
0.19	-12.61161338	0	0	0.97405344	0.59346382	-0.35079105	6.74694794	0	0	-69.58566726	-13.3077072	34.33691022	0	0	-19.0052713	-0.06184246	1.45921874	0
0.2	-12.87116024	0	0	0.97291568	0.58434162	-0.35026146	9.28972083	0	0	-74.61307271	-11.51818032	35.59338287	0	0	-23.82607273	1.9754539	1.6468587	0
0.21	-13.23048756	0	0	0.97051411	0.57546673	-0.34989703	12.10187188	0	0	-79.5030994	-9.57582123	37.25151822	0	0	-29.32894072	5.5190306	1.73674316	0
0.22	-13.56536489	0	0	0.96716176	0.56730869	-0.3497622	15.04164499	0	0	-84.08976754	-7.6733284	38.7346698	0	0	-34.60119314	9.31745658	1.63702121	0
0.23	-13.85780647	0	0	0.9637256	0.56008394	-0.34972547	18.06816702	0	0	-88.18705666	-5.89409996	39.5664706	0	0	-38.83041293	12.65452613	1.49917977	0
0.24	-14.16393102	0	0	0.96101112	0.55396139	-0.34953003	21.23340846	0	0	-91.67041408	-4.22204168	39.60324597	0	0	-41.70427109	15.54859223	1.55084771	0
0.25	-14.46653361	0	0	0.95917097	0.54935109	-0.34902943	24.50786943	0	0	-94.48475003	-2.62821479	38.91456785	0	0	-43.36301124	18.15145503	1.78199233	0
0.26	-14.66571663	0	0	0.95774545	0.54672977	-0.34834465	27.73924202	0	0	-96.60584268	-1.13017824	37.615165	0	0	-44.11853917	20.38134061	1.95525166	0
0.27	-14.7121248	0	0	0.95629612	0.54621478	-0.34776462	30.78549146	0	0	-98.01301129	0.24121215	35.80471986	0	0	-44.18544517	22.07913376	1.91116539	0
0.28	-14.71252629	0	0	0.95485708	0.54742314	-0.34746684	33.66156255	0	0	-98.69675056	1.46697373	33.6080514	0	0	-43.59925256	23.2394613	1.790108	0
0.29	-14.81793969	0	0	0.95378909	0.54985319	-0.34739549	36.45167318	0	0	-98.66231938	2.54145296	31.13939463	0	0	-42.31646008	23.96976557	1.86082495	0
0.3	-15.0641791	0	0	0.9533676	0.55328474	-0.34737421	39.14268	0	0	-97.92277295	3.45091049	28.44672778	0	0	-40.359248	24.3004779	2.22831584	0
0.31	-15.33908403	0	0	0.95364674	0.55780978	-0.34730066	41.56090027	0	0	-96.49030656	4.20178512	25.49979837	0	0	-37.86226393	24.09827609	2.75338051	0
0.32	-15.50167536	0	0	0.95459989	0.5635394	-0.34718346	43.49743488	0	0	-94.38749918	4.87082856	22.26329242	0	0	-35.00639863	23.12681376	3.23365515	0
0.33	-15.51383433	0	0	0.95619181	0.57033452	-0.34702913	44.88291268	0	0	-91.66208644	5.54870816	18.80245581	0	0	-31.96057652	21.19526214	3.60143868	0
0.34	-15.45881104	0	0	0.95831822	0.57781619	-0.34679327	45.82771786	0	0	-88.38021737	6.28204151	15.30096924	0	0	-28.86969452	18.24701897	3.94043786	0
0.35	-15.43690795	0	0	0.96078964	0.58557609	-0.34643461	46.49433629	0	0	-84.60996681	7.007056	11.95571699	0	0	-25.85913342	14.39539027	4.34113353	0
0.36	-15.48220534	0	0	0.96342297	0.59333087	-0.3459748	46.96340375	0	0	-80.40286932	7.61820618	8.87168586	0	0	-23.02813775	9.87293542	4.80714347	0
0.37	-15.5652047	0	0	0.96609404	0.60092477	-0.34546065	47.21549872	0	0	-75.7898134	8.0520981	6.05768554	0	0	-20.45229119	4.94669863	5.27417367	0
0.38	-15.65511286	0	0	0.96870953	0.60823985	-0.3449078	47.21202069	0	0	-70.78470513	8.32234191	3.50300937	0	0	-18.19854347	-0.13708951	5.69284683	0
0.39	-15.74573684	0	0	0.97119605	0.61514914	-0.34431674	46.94404258	0	0	-65.39453672	8.48082759	1.21112693	0	0	-16.31618479	-5.17318713	6.05749243	0
0.4	-15.84555679	0	0	0.97352062	0.62150634	-0.34373172	46.43157253	0	0	-59.63749767	8.55454065	-0.79996354	0	0	-14.83447447	-9.98776749	6.3904756	0
0.41	-15.95434455	0	0	0.97569633	0.62716592	-0.34323979	45.69362303	0	0	-53.55539408	8.50694901	-2.50311038	0	0	-13.7960887	-14.40038859	6.70965995	0
0.42	-16.04505544	0	0	0.97773303	0.63202308	-0.34289616	44.72092973	0	0	-47.21544138	8.24369589	-3.863667	0	0	-13.31370692	-18.20741469	6.99915315	0
0.43	-16.07291302	0	0	0.97958444	0.63601612	-0.34265931	43.48631057	0	0	-40.71514859	7.69456683	-4.84063655	0	0	-13.58401032	-21.19916545	7.2102606	0
0.44	-16.00535181	0	0	0.98115002	0.63908161	-0.34242225	41.98272225	0	0	-34.18724726	6.89994776	-5.40137686	0	0	-14.81151752	-23.20526217	7.29134893	0
0.45	-15.83992984	0	0	0.98233809	0.64112148	-0.34214749	40.26722065	0	0	-27.82719986	6.01608474	-5.55626023	0	0	-17.06990316	-24.13767511	7.2132297	0
0.46	-15.60418124	0	0	0.98313946	0.64203341	-0.34194533	38.4819289	0	0	-21.93354102	5.22227119	-5.35688057	0	0	-20.24388282	-24.02357337	6.98764849	0
0.47	-15.30705072	0	0	0.98366151	0.64184511	-0.3419687	36.79631483	0	0	-16.90930142	4.61181351	-4.89358037	0	0	-24.11212593	-23.02359494	6.62513025	0
0.48	-14.93204167	0	0	0.9840593	0.64071938	-0.34223878	35.33284888	0	0	-13.14411054	4.22177583	-4.2523625	0	0	-28.48028598	-21.41686839	6.1240924	0
0.49	-14.46984385	0	0	0.98441508	0.63880135	-0.34260294	34.1342172	0	0	-10.81740907	4.13246934	-3.45646938	0	0	-33.26163488	-19.53280219	5.49005862	0
0.5	-13.96560565	0	0	0.98464643	0.63603712	-0.3428827	33.20941687	0	0	-9.83044839	4.4473244	-2.42861411	0	0	-38.45946978	-17.67413128	4.77772812	0
0.51	-13.51227032	0	0	0.98454951	0.63220967	-0.34302495	32.56270416	0	0	-9.90145782	5.01182283	-1.04191259	0	0	-44.06662612	-16.07677326	4.08720643	0
0.52	-13.18752863	0	0	0.98397339	0.62713845	-0.34315068	32.18821439	0	0	-10.77237481	5.20925174	0.7737322	0	0	-49.97292679	-14.86515108	3.51058315	0
0.53	-13.0177718	0	0	0.98296875	0.62079297	-0.34347169	32.08083502	0	0	-12.36171528	4.37351153	2.98335761	0	0	-55.9717714	-13.96949188	3.10606747	0
0.54	-12.98439151	0	0	0.98172478	0.61328794	-0.34410904	32.25529621	0	0	-14.7497254	2.67739141	5.48129573	0	0	-61.8593125	-13.10711528	2.88743635	0
0.55	-13.07583046	0	0	0.980287	0.60482697	-0.3449204	32.80114176	0	0	-18.10534398	1.49062561	8.19579397	0	0	-67.53107056	-11.92341105	2.8411929	0
0.56	-13.25838233	0	0	0.97841564	0.59577186	-0.34554452	33.78611521	0	0	-22.5186235	2.3064901	11.07818753	0	0	-72.96514497	-10.24885881	2.86910281	0
0.57	-13.45052267	0	0	0.97577248	0.5866301	-0.34574784	35.09279554	0	0	-27.73938552	5.24173022	14.07149159	0	0	-78.14736631	-8.22302465	2.79620017	0
0.58	-13.52822738	0	0	0.97231341	0.5779661	-0.34570122	36.3119663	0	0	-33.07202195	9.06900271	17.07955236	0	0	-82.9955417	-6.16563239	2.44741608	0
0.59	-13.43441085	0	0	0.96842135	0.57022328	-0.34580467	36.97323808	0	0	-37.71154746	12.59529153	20.05274733	0	0	-87.3643449	-4.32873386	1.81186072	0
0.6	-13.23297925	0	0	0.96468026	0.56366459	-0.34624682	36.83656455	0	0	-41.16503136	15.51390416	23.01576443	0	0	-91.097182	-2.74519236	1.06188449	0
0.61	-13.06219256	0	0	0.96150747	0.55842394	-0.34688037	35.98475214	0	0	-43.38341885	18.06653456	26.03228432	0	0	-94.08903064	-1.30540049	0.42237471	0
0.62	-13.02354407	0	0	0.95898983	0.55458989	-0.34753117	34.65890246	0	0	-44.58938914	20.40169033	29.13786055	0	0	-96.30624694	0.05101543	0.01958949	0
0.63	-13.09325804	0	0	0.95704349	0.55228666	-0.34823968	32.9967064	0	0	-45.00628807	22.42543599	32.26057672	0	0	-97.74653683	1.24234461	-0.18563224	0
0.64	-13.16653409	0	0	0.9556173	0.551645	-0.34915951	30.96555178	0	0	-44.72582186	24.00211234	35.24429361	0	0	-98.40332023	2.13692086	-0.31080474	0
